<svg width="139" height="48" viewBox="0 0 139 48" fill="none" xmlns="http://www.w3.org/2000/svg">
<path d="M27.4552 12H30.8643C29.6924 5.5902 24.2414 0.139203 16.2868 0.139203C7.07164 0.139203 0.661843 7.41903 0.661843 18.8182C0.661843 30.1996 7.00062 37.4972 16.5177 37.4972C25.0226 37.4972 31.1128 31.6911 31.1128 22.3693V19.3864H17.2989V22.3693H27.8813C27.7925 29.8089 23.1228 34.3722 16.5177 34.3722C9.16681 34.3722 3.87562 28.5838 3.87562 18.8182C3.87562 9.01704 9.20233 3.2642 16.2868 3.2642C22.2883 3.2642 26.1412 7.17045 27.4552 12ZM44.2991 37.5682C51.3659 37.5682 56.3019 31.7976 56.3019 23.4879C56.3019 15.125 51.3659 9.3544 44.2991 9.3544C37.2323 9.3544 32.2963 15.125 32.2963 23.4879C32.2963 31.7976 37.2323 37.5682 44.2991 37.5682ZM44.2991 34.674C38.635 34.674 35.4745 29.5959 35.4745 23.4879C35.4745 17.38 38.635 12.2308 44.2991 12.2308C49.9632 12.2308 53.1237 17.38 53.1237 23.4879C53.1237 29.5959 49.9632 34.674 44.2991 34.674ZM58.8969 37H71.8408C79.6533 37 83.2577 32.9695 83.2577 27.4652C83.2577 21.9432 79.6001 18.6229 76.0667 18.3743V18.0902C79.316 17.2202 81.8373 14.6989 81.8373 10.1534C81.8373 4.68466 78.2684 0.636363 71.1661 0.636363H58.8969V37ZM62.2172 34.017V20.0078H71.9829C76.8657 20.0078 80.0795 23.3104 80.0795 27.4652C80.0795 31.2294 77.4516 34.017 71.8408 34.017H62.2172ZM62.2172 17.0604V3.61932H71.1661C76.1377 3.61932 78.659 6.30043 78.659 10.1534C78.659 14.1484 75.7648 17.0604 71.468 17.0604H62.2172ZM88.7735 0.636363H85.613V37H88.7735V0.636363ZM102.737 37.5682C109.803 37.5682 114.739 31.7976 114.739 23.4879C114.739 15.125 109.803 9.3544 102.737 9.3544C95.6698 9.3544 90.7338 15.125 90.7338 23.4879C90.7338 31.7976 95.6698 37.5682 102.737 37.5682ZM102.737 34.674C97.0725 34.674 93.912 29.5959 93.912 23.4879C93.912 17.38 97.0725 12.2308 102.737 12.2308C108.401 12.2308 111.561 17.38 111.561 23.4879C111.561 29.5959 108.401 34.674 102.737 34.674ZM127.082 47.7955C133.545 47.7955 138.339 44.6349 138.339 37.7102V9.72727H135.25V14.9297H134.93C133.812 12.4794 131.557 9.3544 126.55 9.3544C119.802 9.3544 115.275 15.0007 115.275 23.2926C115.275 31.6555 119.962 36.7159 126.496 36.7159C131.397 36.7159 133.794 33.875 134.877 31.3714H135.161V37.5149C135.161 42.593 131.912 44.9545 127.082 44.9545C122.413 44.9545 120.175 42.6996 119.021 40.6222L116.429 42.3267C118.027 45.4517 121.507 47.7955 127.082 47.7955ZM126.869 33.8217C121.454 33.8217 118.453 29.4893 118.453 23.2393C118.453 17.0959 121.4 12.2308 126.869 12.2308C132.214 12.2308 135.214 16.8473 135.214 23.2393C135.214 29.8267 132.125 33.8217 126.869 33.8217Z" fill="#111111"/>
</svg>
